<svg style="width: auto; height: 100%; margin: 0px; padding: 0px; background: none; opacity: 1; font: 12px sans-serif; box-sizing: content-box; border: none; visibility: visible; text-size-adjust: auto; text-decoration: none; fill: currentcolor;" class="RumbleElm" xmlns="http://www.w3.org/2000/svg" xmlns:xlink="http://www.w3.org/1999/xlink" width="24" height="22" viewBox="0 0 24 22"><path d="M21 2H3C1.3 2 0 3.3 0 5v12c0 1.7 1.3 3 3 3h18c1.7 0 3-1.3 3-3V5c0-1.7-1.3-3-3-3zm-3 13c0 1.7-1.3 3-3 3H5c-1.7 0-3-1.3-3-3v-5c0-1.7 1.3-3 3-3h10c1.7 0 3 1.3 3 3v5z" fill="#FFFFFF"></path></svg>