<svg style="width: auto; height: 100%; margin: 0px; padding: 0px; background: none; opacity: 1; font: 12px sans-serif; box-sizing: content-box; border: none; visibility: visible; text-size-adjust: auto; text-decoration: none; fill: currentcolor;" class="RumbleElm" xmlns="http://www.w3.org/2000/svg" xmlns:xlink="http://www.w3.org/1999/xlink" width="24" height="22" viewBox="0 0 24 22"><path d="M12 1c-1.3 0-1.6.7-1.6.7s-3 3.3-5 4.8c-.5.3-1 .5-1.7.5H2C1 7 0 8 0 9v4c0 1 1 2 2 2h1.7c.7 0 1.2.2 1.5.5 2 1.5 5.2 4.8 5.2 4.8s.3.7 1.5.7c1 0 2-1 2-2V3c0-1-1-2-2-2z" fill="#FFFFFF"></path></svg>