<svg style="width: auto; height: 100%; margin: 0px; padding: 0px; background: none; opacity: 1; font: 12px sans-serif; box-sizing: content-box; border: none; visibility: visible; text-size-adjust: auto; text-decoration: none; fill: currentcolor;" class="RumbleElm" xmlns="http://www.w3.org/2000/svg" xmlns:xlink="http://www.w3.org/1999/xlink" width="58" height="18" viewBox="0 0 58 18"><path d="M42.545 11.728a5.027 5.027 0 0 0 .324-1.807c0-.64-.105-1.239-.316-1.8a4.368 4.368 0 0 0-.905-1.479 4.29 4.29 0 0 0-1.437-1c-.565-.247-1.202-.37-1.91-.37-.52 0-.986.072-1.396.218a4.15 4.15 0 0 0-1.071.563V2.43h-2.566v7.205c0 3.142 1.898 4.935 4.991 4.935.703 0 1.337-.12 1.902-.361a4.36 4.36 0 0 0 1.453-1c.405-.427.715-.92.93-1.48Zm-2.425-2.79c.121.29.182.616.182.974 0 .365-.06.695-.182.992a2.336 2.336 0 0 1-.499.765 2.148 2.148 0 0 1-.73.497 2.345 2.345 0 0 1-.89.168c-.32 0-.62-.056-.896-.168a2.33 2.33 0 0 1-.731-.488 2.408 2.408 0 0 1-.49-.765 2.768 2.768 0 0 1-.175-1c0-.36.061-.684.183-.976.122-.297.285-.55.49-.756.21-.213.454-.376.731-.488.282-.118.581-.177.897-.177.321 0 .62.06.897.177.282.112.526.275.73.488.206.207.366.46.483.756Z M6.889 5.557V7.82l-1.08.008c-.709 0-1.263.2-1.661.597-.393.398-.59.998-.59 1.8v4.052H1V9.879c0-2.92 2.135-4.322 4.668-4.322h1.22ZM12.376 12.317c.282 0 .537-.037.764-.11.227-.072.418-.193.573-.36.16-.175.282-.402.365-.682.083-.28.125-.63.125-1.05V5.556h2.575v4.641c0 .796-.111 1.471-.333 2.026-.221.55-.529.998-.922 1.346a3.658 3.658 0 0 1-1.395.748 6.224 6.224 0 0 1-1.752.235 6.224 6.224 0 0 1-1.753-.235 3.658 3.658 0 0 1-1.395-.748c-.393-.348-.7-.796-.922-1.346-.221-.555-.332-1.23-.332-2.026v-4.64h2.575v4.556c0 .415.041.765.124 1.051.083.28.202.507.357.681.16.168.354.289.582.362.227.072.481.109.764.109ZM43.844 14.276V2.43h2.567v11.846h-2.567Z M47.748 8.122a4.647 4.647 0 0 0-.35 1.799c0 .633.117 1.233.35 1.799.238.56.567 1.05.988 1.471.42.42.925.754 1.512 1a5.047 5.047 0 0 0 1.935.362c.603 0 1.154-.087 1.653-.26a4.823 4.823 0 0 0 1.328-.69 4.44 4.44 0 0 0 .964-.975c.266-.37.46-.745.581-1.127h-2.774c-.155.27-.382.49-.68.665-.3.173-.651.26-1.056.26-.249 0-.492-.042-.73-.126a2.571 2.571 0 0 1-.657-.353 2.525 2.525 0 0 1-.863-1.303h6.985c.016-.101.03-.202.041-.303.017-.1.025-.24.025-.42 0-.64-.119-1.239-.357-1.8a4.405 4.405 0 0 0-.989-1.479 4.544 4.544 0 0 0-1.52-.992 4.99 4.99 0 0 0-1.951-.37c-.703 0-1.348.123-1.935.37a4.659 4.659 0 0 0-1.52.992c-.421.42-.748.914-.98 1.48Zm3.09-.37c.37-.275.824-.412 1.361-.412.52 0 .956.14 1.304.42.35.275.604.633.764 1.076h-4.235a2.32 2.32 0 0 1 .805-1.084Z M23.766 9.585v4.69h2.584v-4.69c.038-1.115.57-2.069 1.747-2.069 1.106 0 1.533 1.17 1.533 2.119v4.64h2.575V9.88c0-2.73-1.4-4.6-4.025-4.6-1.448 0-2.447.51-3.122 1.198-.676-.688-1.675-1.198-3.123-1.198-2.625 0-4.024 1.87-4.024 4.6v4.396h2.574V9.635c0-.95.428-2.119 1.533-2.119 1.177 0 1.71.954 1.748 2.069Z" fill="#FFFFFF"></path></svg>