<svg style="width: auto; height: auto; margin: 0px; padding: 0px; background: none; opacity: 1; font: 12px sans-serif; box-sizing: content-box; border: none; visibility: visible; text-size-adjust: auto; text-decoration: none; fill: currentcolor; position: absolute;" class="RumbleElm" xmlns="http://www.w3.org/2000/svg" xmlns:xlink="http://www.w3.org/1999/xlink" width="80" height="10" viewBox="0 0 80 10"><g transform="translate(-20,0)" fill="#FFFFFF"><circle cx="5" cy="5" r="1" fill="#FFFFFF"></circle><circle cx="15" cy="5" r="1" fill="#FFFFFF"></circle><circle cx="25" cy="5" r="1" fill="#FFFFFF"></circle><circle cx="35" cy="5" r="1" fill="#FFFFFF"></circle><circle cx="45" cy="5" r="1" fill="#FFFFFF"></circle><circle cx="55" cy="5" r="1" fill="#FFFFFF"></circle><circle cx="65" cy="5" r="1" fill="#FFFFFF"></circle><circle cx="75" cy="5" r="1" fill="#FFFFFF"></circle><circle cx="85" cy="5" r="2" fill="#FFFFFF"></circle><circle cx="95" cy="5" r="3" fill="#FFFFFF"></circle><circle cx="105" cy="5" r="4" fill="#FFFFFF"></circle><circle cx="115" cy="5" r="5" fill="#FFFFFF"></circle><circle cx="125" cy="5" r="1" fill="#FFFFFF"></circle><circle cx="135" cy="5" r="1" fill="#FFFFFF"></circle><circle cx="145" cy="5" r="1" fill="#FFFFFF"></circle><circle cx="155" cy="5" r="1" fill="#FFFFFF"></circle><circle cx="165" cy="5" r="1" fill="#FFFFFF"></circle><circle cx="175" cy="5" r="1" fill="#FFFFFF"></circle><circle cx="185" cy="5" r="1" fill="#FFFFFF"></circle><circle cx="195" cy="5" r="1" fill="#FFFFFF"></circle><circle cx="205" cy="5" r="1" fill="#FFFFFF"></circle></g></svg>