<svg style="width: auto; height: 100%; margin: 0px; padding: 0px; background: none; opacity: 1; font: 12px sans-serif; box-sizing: content-box; border: none; visibility: visible; text-size-adjust: auto; text-decoration: none; fill: currentcolor;" class="RumbleElm" xmlns="http://www.w3.org/2000/svg" xmlns:xlink="http://www.w3.org/1999/xlink" width="24" height="22" viewBox="0 0 24 22"><path d="M21.9 1H2.1C.95 1 0 2 0 3.25v15.5C0 20 .94 21 2.1 21h19.8c1.16 0 2.1-1 2.1-2.25V3.25C24 2 23.06 1 21.9 1zM19 12.03c0 .07-.02.14-.07.2-.05.08-.1.1-.18.13l-1.7.25c-.1.34-.23.62-.35.84.22.3.54.73.98 1.26.06.07.1.15.1.23 0 .08-.04.15-.1.2-.16.23-.46.56-.9 1s-.72.64-.85.64c-.07 0-.15-.03-.24-.1l-1.27-.97c-.26.14-.54.26-.83.35-.1.82-.18 1.4-.26 1.7-.04.16-.15.25-.33.25h-2c-.1 0-.17-.03-.23-.08-.07-.05-.1-.12-.1-.2l-.26-1.67c-.3-.1-.56-.2-.8-.34l-1.3 1c-.06.04-.14.07-.23.07-.08 0-.16-.03-.23-.1-.76-.7-1.26-1.2-1.5-1.53-.04-.06-.06-.13-.06-.2 0-.08.02-.16.07-.22l.47-.6c.2-.28.38-.5.5-.65-.18-.3-.3-.6-.4-.9l-1.66-.25c-.07 0-.14-.05-.2-.1-.04-.08-.06-.15-.06-.23V9.96c0-.07.02-.14.07-.2.05-.08.1-.1.18-.13l1.7-.25c.08-.3.2-.57.35-.85-.25-.35-.57-.77-.98-1.26-.06-.08-.1-.15-.1-.23 0-.06.04-.13.1-.2.15-.23.45-.55.9-1 .43-.42.72-.64.85-.64.08 0 .16.03.24.1l1.27.97c.26-.14.54-.26.82-.35.1-.83.18-1.4.26-1.7.04-.16.15-.25.33-.25h2c.1 0 .17.03.23.08.07.05.1.1.1.2l.27 1.67c.3.1.57.2.82.34l1.3-1c.04-.04.12-.07.2-.07.1 0 .16.03.24.1.78.7 1.28 1.23 1.5 1.54.04.05.06.12.06.2 0 .07-.02.14-.07.2l-.46.62c-.23.26-.4.48-.5.63.15.3.28.6.37.9l1.67.25c.07 0 .14.05.2.1.04.08.06.15.06.23v2.03zm-7-3.36c-.64 0-1.2.22-1.65.68s-.68 1-.68 1.65.22 1.2.68 1.65 1 .68 1.65.68c.65 0 1.2-.23 1.65-.68.46-.46.68-1 .68-1.65s-.22-1.2-.68-1.65c-.46-.46-1-.68-1.65-.68z" fill="#FFFFFF"></path></svg>