<svg style="width: auto; height: 100%; margin: 0px; padding: 0px; background: none; opacity: 1; font: 12px sans-serif; box-sizing: content-box; border: none; visibility: visible; text-size-adjust: auto; text-decoration: none; fill: currentcolor;" class="RumbleElm" xmlns="http://www.w3.org/2000/svg" xmlns:xlink="http://www.w3.org/1999/xlink" width="24" height="22" viewBox="0 0 24 22"><path d="M12 1c-1.3 0-1.6.7-1.6.7s-3 3.3-5 4.8c-.5.3-1 .5-1.7.5H2C1 7 0 8 0 9v4c0 1 1 2 2 2h1.7c.7 0 1.2.2 1.5.5 2 1.5 5.2 4.8 5.2 4.8s.3.7 1.5.7c1 0 2-1 2-2V3c0-1-1-2-2-2zm7.7 2H19L18 5v.5c2 1.7 3.2 3 3.2 5.7 0 2.6-1 4-3 5.7-.3 0-.3.3-.2.5l1 1.7h.7c2.7-2.2 4.3-4.5 4.3-8s-1.6-5.8-4.3-8zm.3 8c0-2.2-1-3.2-2.5-4.6H17l-1.2 1.7v.7c1 .8 1.5 1 1.5 2.3 0 1.3-.5 1.5-1.5 2.3v.6l1 1.5.4.2h.3C19 14 20 13 20 11z" fill="#FFFFFF"></path></svg>